# xmcd CD database file
#
# Track frame offsets:
#	150
#	22974
#	42399
#	54249
#	74949
#	93453
#	107326
#	119701
#	132008
#	148055
#	160366
#	177892
#	193770
#	205246
#
# Disc length: 3023 seconds
#
# Revision: 7
# Processed by: cddbd v1.5.2PL0 Copyright (c) Steve Scherf et al.
# Submitted via: CDex 1.72
#
DISCID=cf0bcd0e
DTITLE=Flatlanders (USA-02-Now Again-cty) - Now Again 
DYEAR=2002
DGENRE=Country
TTITLE0=Going Away
TTITLE1=Julia
TTITLE2=Wavin' My Heart Goodbye
TTITLE3=Down In The Light Of The Melon Moon
TTITLE4=Right Where I Belong
TTITLE5=My Wildest Dreams Grow Wilder Ever Day
TTITLE6=I Thought The Wreck Was Over
TTITLE7=Yesterday Was Judgement Day
TTITLE8=Now It's Now Again
TTITLE9=All You Are Love
TTITLE10=You Make It Look Easy
TTITLE11=Pay The Alligator
TTITLE12=Down On Filbert's Rise
TTITLE13=South Wind Of Summer
EXTD=YEAR: 2002
EXTT0=
EXTT1=
EXTT2=
EXTT3=
EXTT4=
EXTT5=
EXTT6=
EXTT7=
EXTT8=
EXTT9=
EXTT10=
EXTT11=
EXTT12=
EXTT13=
PLAYORDER=
